<?xml version="1.0" encoding="UTF-8" standalone="no"?>
<svg width="106px" height="26px" viewBox="0 0 106 26" version="1.1" xmlns="http://www.w3.org/2000/svg" xmlns:xlink="http://www.w3.org/1999/xlink" xmlns:sketch="http://www.bohemiancoding.com/sketch/ns">
    <!-- Generator: Sketch 3.3.3 (12081) - http://www.bohemiancoding.com/sketch -->
    <title>Logo</title>
    <defs></defs>
    <g id="Resp-144-Navigation-" stroke="none" stroke-width="1" fill="none" fill-rule="evenodd" sketch:type="MSPage">
        <g id="Resp-349---Search-Field-Focus" sketch:type="MSArtboardGroup" transform="translate(-107.000000, -15.000000)" fill="#003B25">
            <g id="Logo" sketch:type="MSLayerGroup" transform="translate(106.916667, 15.500000)">
                <path d="M95.9224,18.7176776 L93.4577,18.7176776 L93.4577,6.99668421 L95.9224,6.99668421 L95.9224,18.7176776 L95.9224,18.7176776 Z M0,22.1473553 L0.842473333,22.1473553 C3.43947333,22.1473553 3.67336667,20.8749671 3.67336667,18.1451513 L3.67336667,0 L6.32459333,2.61021711 L6.32459333,18.87725 C6.32459333,21.7569671 5.32858667,24.0448158 2.6264,24.5883289 L0,22.1473553 L0,22.1473553 Z M14.6327067,9.02696053 C12.5041467,9.02696053 10.95934,10.6085 10.95934,12.7625658 C10.95934,15.1577632 12.4515533,16.7489737 14.6327067,16.7489737 C17.01868,16.7489737 18.5187333,15.239 18.5187333,12.7954474 C18.5187333,10.6085 16.8899733,9.02696053 14.6327067,9.02696053 L14.6327067,9.02696053 Z M14.6542667,18.9455921 C11.03872,18.9455921 8.43812667,16.3553618 8.43812667,12.7625658 C8.43812667,9.414125 11.1373733,6.817125 14.6542667,6.817125 C18.3570333,6.817125 21.0379867,9.30677632 21.0379867,12.7625658 C21.0379867,16.4594868 18.43478,18.9455921 14.6542667,18.9455921 L14.6542667,18.9455921 Z M30.61716,11.4740592 C30.61716,9.80805921 29.77142,8.74392105 28.4360067,8.74392105 C27.4631933,8.74392105 26.6703733,9.18298684 25.6234067,10.3741382 L25.6234067,18.7176776 L23.1567467,18.7176776 L23.1567467,1.43518421 L25.6234067,1.43518421 L25.6234067,8.43154605 C26.49234,7.39029605 27.7816933,6.76554605 29.0396867,6.76554605 C31.3743733,6.76554605 33.08088,8.34708553 33.08088,11.5459474 L33.08088,18.718 L30.6174867,18.718 L30.6174867,11.4740592 L30.61716,11.4740592 Z M43.3901533,11.5230592 C43.3901533,9.83739474 42.55454,8.789375 41.20704,8.789375 C40.24272,8.789375 39.4561067,9.22876316 38.39934,10.4066974 L38.39934,18.7176776 L35.93268,18.7176776 L35.93268,7.00957895 L38.39934,7.00957895 L38.39934,8.477 C39.2663133,7.43575 40.5576267,6.817125 41.8172533,6.817125 C44.07452,6.817125 45.8568133,8.34676316 45.8568133,11.545625 L45.8568133,18.7176776 L43.3901533,18.7176776 L43.3901533,11.5230592 L43.3901533,11.5230592 Z M53.1872133,18.7176776 L53.1872133,0 L55.5646933,2.40196711 L55.5646933,16.3031382 L60.8749867,16.3031382 L63.18648,18.7176776 L53.1872133,18.7176776 L53.1872133,18.7176776 Z M70.15428,11.4543947 C70.0455,9.98342763 69.07922,8.94894737 67.5262467,8.94894737 C65.8494667,8.94894737 64.8256933,9.90573684 64.4843267,11.4543947 L70.15428,11.4543947 L70.15428,11.4543947 Z M68.2419733,16.6158355 C69.10274,16.6158355 69.94848,16.4301513 70.8357067,16.0497566 C70.8357067,16.0497566 71.97806,17.1690197 72.37202,17.5075066 C70.93436,18.5161974 69.6535,18.9455921 67.68468,18.9455921 C64.0100067,18.9455921 61.9637667,15.967875 61.9637667,12.7367763 C61.9637667,9.20942105 64.2210333,6.81744737 67.47888,6.81744737 C70.59822,6.81744737 72.5948067,8.94894737 72.5948067,13.4624276 L64.4317333,13.4624276 C64.8025,15.49625 66.08336,16.6158355 68.2419733,16.6158355 L68.2419733,16.6158355 Z M86.05478,18.9520395 L82.56108,10.6117237 L79.0922067,18.9520395 L78.3552467,18.9520395 L73.06096,7.00990132 L75.6906267,7.00990132 L78.7325467,14.0191579 L81.6441267,7.00990132 L83.4777067,7.00990132 L86.40072,14.0191579 L89.4243467,6.99700658 L92.04258,6.99700658 L86.7901067,18.9520395 L86.05478,18.9520395 L86.05478,18.9520395 Z M94.6350067,4.21432237 C93.8784467,4.21432237 93.247,3.56700658 93.247,2.75657237 C93.247,1.97225 93.8784467,1.32138816 94.6350067,1.32138816 C95.39516,1.32138816 96.0249733,1.97225 96.0249733,2.75657237 C96.0246467,3.56668421 95.39516,4.21432237 94.6350067,4.21432237 L94.6350067,4.21432237 Z M101.920653,8.93927632 C101.00566,8.93927632 100.572173,9.33933553 100.59994,9.93507237 C100.62444,10.5304868 101.320567,10.9859934 103.439,12.1803684 C105.425787,13.2967303 106.00464,14.2728618 106.00464,15.49625 C106.00464,17.572625 104.350727,18.9455921 102.125147,18.9455921 C100.676053,18.9455921 99.5761667,18.6657763 98.0245,17.8585658 L98.0245,15.2064408 C99.6271267,16.3289276 101.043227,16.7912039 101.942213,16.7912039 C102.799387,16.7912039 103.46546,16.4627105 103.495187,15.7041776 C103.51348,15.3073421 103.19498,14.8744013 102.6991,14.5391382 C102.200933,14.1748618 101.51526,13.8331513 100.83416,13.4131053 C99.4938467,12.6323289 98.10388,11.6233158 98.10388,10.0124408 C98.10388,8.01440132 99.5369667,6.81680263 101.989907,6.81680263 C103.09306,6.81680263 104.195887,7.12595395 105.45388,7.80292763 L105.45388,10.2403553 C104.06424,9.30677632 102.761493,8.93927632 101.920653,8.93927632 L101.920653,8.93927632 Z" id="Shape" sketch:type="MSShapeGroup"></path>
            </g>
        </g>
    </g>
</svg>